<svg width="40" height="40" fill="none" xmlns="http://www.w3.org/2000/svg"><path d="M31.518 32.839h-2.1v-2.08h2.1v2.08Zm-16.325 2.72h-2.586v-2.08h2.587v2.08ZM8.405 10.123V8.045h2.263v2.079H8.405Zm23.073 15.48c-2.332 2.803-4.72 4.67-8.772 4.67-4.02 0-7.16-2.46-8.526-6.074H9.698v-2.078h3.916a12.46 12.46 0 0 1-.18-2.122v-.11c0-5.604 3.831-10.22 9.272-10.22 3.72 0 6.274 1.813 8.495 4.505l8.105-6.209a20.336 20.336 0 0 0-3.558-3.76h-3.233c-.974-.789-2.04-1.489-3.21-2.08h3.232C29.88.784 26.685 0 22.817 0 15.79 0 9.872 3.134 6.243 8.045H3.98a19.37 19.37 0 0 0-1.34 2.079h2.263C3.288 13.023 2.386 16.384 2.386 20v.11c0 .681.033 1.352.095 2.012H0V24.2H2.781c.707 3.584 2.331 6.744 4.616 9.278H4.811c.676.75 1.41 1.445 2.194 2.08H9.59C13.064 38.367 17.535 40 22.428 40c2.98 0 5.52-.448 7.723-1.243h-2.997v-.414c1.09-.47 2.092-1.03 3.02-1.666h4.041c2.118-1.449 3.853-3.29 5.369-5.358l-8.106-5.715Z" fill="#fff"/></svg>
